<svg width="458" height="466" viewBox="0 0 458 466" fill="none" xmlns="http://www.w3.org/2000/svg">
<rect width="458" height="465.421" rx="229" fill="#4EAE58"/>
<path d="M0 207.267C0 104.507 83.303 21.2041 186.062 21.2041C288.822 21.2041 372.125 104.507 372.125 207.267V244.218C372.125 354.675 282.582 444.218 172.125 444.218H0V207.267Z" fill="#5DBC67"/>
<path d="M0 207.267C0 104.507 83.303 21.2041 186.062 21.2041C288.822 21.2041 372.125 104.507 372.125 207.267V244.218C372.125 354.675 282.582 444.218 172.125 444.218H0V207.267Z" fill="#5DBC67"/>
<path d="M0 230.591C0 137.2 75.7084 61.4912 169.1 61.4912C262.491 61.4912 338.199 137.2 338.199 230.591V253.915C338.199 360.188 252.048 446.338 145.775 446.338H0V230.591Z" fill="#6DD877"/>
</svg>
