<svg width="192" height="40" viewBox="0 0 192 40" fill="none" xmlns="http://www.w3.org/2000/svg">
<path d="M39.5627 14.5776H35.5462C35.5462 9.62436 33.4041 8.84469 32.333 9.07401C32.0117 7.14776 31.3958 5.74894 31.128 5.29031C39.8037 5.56549 39.5627 10.1059 39.5627 14.5776Z" fill="#2E2E2E"/>
<path d="M25.5049 5.29031C26.4689 5.84067 26.9776 7.58346 27.1115 8.38606V8.73005H9.43883C5.90429 8.73005 5.02065 10.9112 5.02065 12.0019C4.21735 16.1667 4.21735 26.1419 5.02065 27.9925C5.91635 30.056 7.43056 30.9736 8.63552 31.0883C8.63552 32.189 9.43883 33.84 9.84048 34.528C2.61074 34.528 0.929201 29.8754 0.602475 28.3365C-0.200826 24.5528 -0.200816 15.4788 0.602475 10.7939C1.03367 8.27906 3.41404 5.29031 8.63552 5.29031H25.5049Z" fill="#2E2E2E"/>
<path d="M31.9314 11.4818H27.9148C27.9148 0.130715 17.8735 2.53852 15.8653 4.94634H11.4471C17.8735 -3.99694 33.1363 -0.213257 31.9314 11.4818Z" fill="#2E2E2E"/>
<path d="M9.03717 9.07401L13.4553 9.074C11.0454 19.7371 12.2504 31.4322 15.062 34.184C17.9539 38.5868 24.3 36.5918 25.5049 34.8719H30.3247C28.3968 40.3755 20.4173 40.3755 16.6686 39.6876C6.06495 37.211 7.1628 18.2466 9.03717 9.07401Z" fill="#2E2E2E"/>
<path d="M32.333 31.0882H27.9148V27.3045H32.333V31.0882Z" fill="#2E2E2E"/>
<path d="M15.8653 34.8719L13.857 31.4322H32.7347C34.9839 30.6067 35.814 29.2537 35.9479 28.6804V24.5528H39.9644C39.9644 28.3365 40.7677 32.4641 34.7429 34.528L15.8653 34.8719Z" fill="#2E2E2E"/>
<path d="M72.392 26.072C72.488 26.216 72.536 26.352 72.536 26.48C72.536 26.672 72.408 26.872 72.152 27.08C71.288 27.784 70.32 28.336 69.248 28.736C68.176 29.136 67.048 29.336 65.864 29.336C64.152 29.336 62.608 28.968 61.232 28.232C59.856 27.48 58.776 26.448 57.992 25.136C57.224 23.808 56.84 22.328 56.84 20.696C56.84 19.016 57.232 17.504 58.016 16.16C58.816 14.816 59.912 13.768 61.304 13.016C62.712 12.248 64.296 11.864 66.056 11.864C67.24 11.864 68.352 12.064 69.392 12.464C70.448 12.864 71.408 13.424 72.272 14.144C72.464 14.304 72.56 14.464 72.56 14.624C72.56 14.752 72.504 14.896 72.392 15.056L70.832 17.264C70.688 17.472 70.528 17.576 70.352 17.576C70.24 17.576 70.08 17.512 69.872 17.384C68.624 16.504 67.344 16.064 66.032 16.064C65.168 16.064 64.392 16.256 63.704 16.64C63.032 17.024 62.504 17.56 62.12 18.248C61.736 18.936 61.544 19.728 61.544 20.624C61.544 21.504 61.736 22.288 62.12 22.976C62.504 23.664 63.032 24.2 63.704 24.584C64.392 24.968 65.168 25.16 66.032 25.16C66.768 25.16 67.456 25.04 68.096 24.8C68.736 24.56 69.344 24.224 69.92 23.792C70.112 23.648 70.28 23.576 70.424 23.576C70.568 23.576 70.712 23.672 70.856 23.864L72.392 26.072ZM74.2374 12.848C74.2374 12.624 74.2854 12.464 74.3814 12.368C74.4934 12.256 74.6614 12.2 74.8854 12.2H85.5654C86.0134 12.2 86.2374 12.416 86.2374 12.848V15.512C86.2374 15.752 86.1814 15.92 86.0694 16.016C85.9734 16.112 85.8054 16.16 85.5654 16.16H74.8854C74.6614 16.16 74.4934 16.112 74.3814 16.016C74.2854 15.92 74.2374 15.752 74.2374 15.512V12.848ZM74.2374 19.256C74.2374 19.032 74.2854 18.864 74.3814 18.752C74.4934 18.64 74.6614 18.584 74.8854 18.584H85.5654C86.0134 18.584 86.2374 18.808 86.2374 19.256V21.872C86.2374 22.096 86.1814 22.264 86.0694 22.376C85.9574 22.472 85.7894 22.52 85.5654 22.52H74.8854C74.6614 22.52 74.4934 22.472 74.3814 22.376C74.2854 22.264 74.2374 22.096 74.2374 21.872V19.256ZM74.2134 25.688C74.2134 25.448 74.2614 25.28 74.3574 25.184C74.4694 25.088 74.6374 25.04 74.8614 25.04H85.5894C85.8134 25.04 85.9814 25.088 86.0934 25.184C86.2054 25.28 86.2614 25.448 86.2614 25.688V28.352C86.2614 28.784 86.0374 29 85.5894 29H74.8614C74.6374 29 74.4694 28.952 74.3574 28.856C74.2614 28.744 74.2134 28.576 74.2134 28.352V25.688ZM89.0159 12.848C89.0159 12.624 89.0639 12.464 89.1599 12.368C89.2719 12.256 89.4399 12.2 89.6639 12.2H92.9039C93.1439 12.2 93.3119 12.256 93.4079 12.368C93.5199 12.464 93.5759 12.624 93.5759 12.848V24.464C93.5759 24.608 93.5999 24.712 93.6479 24.776C93.6959 24.824 93.7999 24.848 93.9599 24.848H99.9119C100.136 24.848 100.296 24.904 100.392 25.016C100.504 25.112 100.56 25.272 100.56 25.496V28.352C100.56 28.576 100.504 28.744 100.392 28.856C100.296 28.952 100.136 29 99.9119 29H89.6639C89.4399 29 89.2719 28.952 89.1599 28.856C89.0639 28.744 89.0159 28.576 89.0159 28.352V12.848ZM102.797 12.848C102.797 12.624 102.845 12.464 102.941 12.368C103.053 12.256 103.221 12.2 103.445 12.2H106.685C106.925 12.2 107.093 12.256 107.189 12.368C107.301 12.464 107.357 12.624 107.357 12.848V24.464C107.357 24.608 107.381 24.712 107.429 24.776C107.477 24.824 107.581 24.848 107.741 24.848H113.693C113.917 24.848 114.077 24.904 114.173 25.016C114.285 25.112 114.341 25.272 114.341 25.496V28.352C114.341 28.576 114.285 28.744 114.173 28.856C114.077 28.952 113.917 29 113.693 29H103.445C103.221 29 103.053 28.952 102.941 28.856C102.845 28.744 102.797 28.576 102.797 28.352V12.848ZM113.001 12.968C112.921 12.824 112.881 12.688 112.881 12.56C112.881 12.32 113.065 12.2 113.433 12.2H116.841C117.145 12.2 117.377 12.256 117.537 12.368C117.697 12.464 117.849 12.664 117.993 12.968L122.025 21.2L125.985 12.968C126.145 12.664 126.305 12.464 126.465 12.368C126.625 12.256 126.857 12.2 127.161 12.2H130.425C130.793 12.2 130.977 12.312 130.977 12.536C130.977 12.648 130.929 12.792 130.833 12.968L123.081 28.208C122.857 28.672 122.657 28.992 122.481 29.168C122.321 29.36 122.137 29.456 121.929 29.456C121.737 29.456 121.561 29.36 121.401 29.168C121.241 28.992 121.041 28.672 120.801 28.208L113.001 12.968ZM131.987 12.848C131.987 12.624 132.035 12.464 132.131 12.368C132.243 12.256 132.411 12.2 132.635 12.2H143.315C143.763 12.2 143.987 12.416 143.987 12.848V15.512C143.987 15.752 143.931 15.92 143.819 16.016C143.723 16.112 143.555 16.16 143.315 16.16H132.635C132.411 16.16 132.243 16.112 132.131 16.016C132.035 15.92 131.987 15.752 131.987 15.512V12.848ZM131.987 19.256C131.987 19.032 132.035 18.864 132.131 18.752C132.243 18.64 132.411 18.584 132.635 18.584H143.315C143.763 18.584 143.987 18.808 143.987 19.256V21.872C143.987 22.096 143.931 22.264 143.819 22.376C143.707 22.472 143.539 22.52 143.315 22.52H132.635C132.411 22.52 132.243 22.472 132.131 22.376C132.035 22.264 131.987 22.096 131.987 21.872V19.256ZM131.963 25.688C131.963 25.448 132.011 25.28 132.107 25.184C132.219 25.088 132.387 25.04 132.611 25.04H143.339C143.563 25.04 143.731 25.088 143.843 25.184C143.955 25.28 144.011 25.448 144.011 25.688V28.352C144.011 28.784 143.787 29 143.339 29H132.611C132.387 29 132.219 28.952 132.107 28.856C132.011 28.744 131.963 28.576 131.963 28.352V25.688ZM146.766 12.848C146.766 12.624 146.814 12.464 146.91 12.368C147.022 12.256 147.19 12.2 147.414 12.2H153.174C155.734 12.2 157.638 12.664 158.886 13.592C160.134 14.504 160.758 15.928 160.758 17.864C160.758 19.864 159.838 21.312 157.998 22.208L161.622 28.232C161.718 28.392 161.766 28.528 161.766 28.64C161.766 28.88 161.566 29 161.166 29H157.734C157.382 29 157.118 28.952 156.942 28.856C156.782 28.76 156.614 28.56 156.438 28.256L152.718 21.656C152.638 21.496 152.598 21.376 152.598 21.296C152.598 21.12 152.766 21 153.102 20.936C153.982 20.824 154.694 20.56 155.238 20.144C155.782 19.712 156.054 19.12 156.054 18.368C156.054 17.568 155.79 16.984 155.262 16.616C154.75 16.232 153.974 16.04 152.934 16.04H151.71C151.55 16.04 151.446 16.064 151.398 16.112C151.35 16.16 151.326 16.264 151.326 16.424V28.352C151.326 28.576 151.27 28.744 151.158 28.856C151.062 28.952 150.894 29 150.654 29H147.414C147.19 29 147.022 28.952 146.91 28.856C146.814 28.744 146.766 28.576 146.766 28.352V12.848ZM164.115 24.008C164.259 23.768 164.419 23.648 164.595 23.648C164.723 23.648 164.883 23.72 165.075 23.864C165.667 24.296 166.315 24.648 167.019 24.92C167.723 25.176 168.427 25.304 169.131 25.304C169.835 25.304 170.363 25.2 170.715 24.992C171.083 24.768 171.267 24.472 171.267 24.104C171.267 23.848 171.179 23.632 171.003 23.456C170.827 23.28 170.539 23.128 170.139 23C169.755 22.856 169.179 22.688 168.411 22.496C167.227 22.208 166.251 21.856 165.483 21.44C164.715 21.008 164.123 20.456 163.707 19.784C163.307 19.112 163.107 18.288 163.107 17.312C163.107 16.176 163.379 15.2 163.923 14.384C164.483 13.552 165.251 12.928 166.227 12.512C167.203 12.08 168.323 11.864 169.587 11.864C171.859 11.864 173.875 12.576 175.635 14C175.827 14.144 175.923 14.312 175.923 14.504C175.923 14.664 175.867 14.824 175.755 14.984L174.315 17.192C174.171 17.4 174.019 17.504 173.859 17.504C173.699 17.504 173.547 17.44 173.403 17.312C172.107 16.368 170.851 15.896 169.635 15.896C169.059 15.896 168.611 16.008 168.291 16.232C167.971 16.44 167.811 16.72 167.811 17.072C167.811 17.344 167.899 17.568 168.075 17.744C168.251 17.92 168.515 18.072 168.867 18.2C169.219 18.312 169.747 18.456 170.451 18.632C171.715 18.936 172.747 19.312 173.547 19.76C174.347 20.192 174.947 20.744 175.347 21.416C175.763 22.072 175.971 22.872 175.971 23.816C175.971 24.952 175.691 25.936 175.131 26.768C174.571 27.6 173.779 28.24 172.755 28.688C171.731 29.12 170.539 29.336 169.179 29.336C167.947 29.336 166.803 29.152 165.747 28.784C164.691 28.4 163.747 27.88 162.915 27.224C162.787 27.128 162.691 27.04 162.627 26.96C162.563 26.864 162.531 26.76 162.531 26.648C162.531 26.488 162.603 26.304 162.747 26.096L164.115 24.008ZM177.925 12.848C177.925 12.624 177.973 12.464 178.069 12.368C178.181 12.256 178.349 12.2 178.573 12.2H189.253C189.701 12.2 189.925 12.416 189.925 12.848V15.512C189.925 15.752 189.869 15.92 189.757 16.016C189.661 16.112 189.493 16.16 189.253 16.16H178.573C178.349 16.16 178.181 16.112 178.069 16.016C177.973 15.92 177.925 15.752 177.925 15.512V12.848ZM177.925 19.256C177.925 19.032 177.973 18.864 178.069 18.752C178.181 18.64 178.349 18.584 178.573 18.584H189.253C189.701 18.584 189.925 18.808 189.925 19.256V21.872C189.925 22.096 189.869 22.264 189.757 22.376C189.645 22.472 189.477 22.52 189.253 22.52H178.573C178.349 22.52 178.181 22.472 178.069 22.376C177.973 22.264 177.925 22.096 177.925 21.872V19.256ZM177.901 25.688C177.901 25.448 177.949 25.28 178.045 25.184C178.157 25.088 178.325 25.04 178.549 25.04H189.277C189.501 25.04 189.669 25.088 189.781 25.184C189.893 25.28 189.949 25.448 189.949 25.688V28.352C189.949 28.784 189.725 29 189.277 29H178.549C178.325 29 178.157 28.952 178.045 28.856C177.949 28.744 177.901 28.576 177.901 28.352V25.688Z" fill="#2E2E2E"/>
</svg>
